PathFileType	4	(X/Y/Z)	pose2sim_0-675.trc
DataRate	CameraRate	NumFrames	NumMarkers	Units	OrigDataRate	OrigDataStartFrame	OrigNumFrames
50	50	8	22	m	50	253	676
Frame#	Time	Hip			RHip			RKnee			RAnkle			RBigToe			RSmallToe			RHeel			LHip			LKnee			LAnkle			LBigToe			LSmallToe			LHeel			Neck			Head			Nose			RShoulder			RElbow			RWrist			LShoulder			LElbow			LWrist			
		X1	Y1	Z1	X2	Y2	Z2	X3	Y3	Z3	X4	Y4	Z4	X5	Y5	Z5	X6	Y6	Z6	X7	Y7	Z7	X8	Y8	Z8	X9	Y9	Z9	X10	Y10	Z10	X11	Y11	Z11	X12	Y12	Z12	X13	Y13	Z13	X14	Y14	Z14	X15	Y15	Z15	X16	Y16	Z16	X17	Y17	Z17	X18	Y18	Z18	X19	Y19	Z19	X20	Y20	Z20	X21	Y21	Z21	X22	Y22	Z22	
253	5.06	0.11792066522776978	0.7889340749572262	-0.027377831835866305	0.030094792623391164	0.7786270184072007	-0.016178219971218846	-0.022937761469550393	0.41939600382505177	-0.04493460772891915	-0.07380465914700948	0.07168251155412025	-0.06719876312941972	-0.09319131817696541	0.03719159502113193	0.08321433223155782	-0.12958839525684307	0.03811341140553725	0.038858395667201666	-0.07324342993142258	0.03315847753910459	-0.10298523848771461	0.21147192748177213	0.7767814042245819	-0.03443912874451143	0.2558032118139265	0.4127496934742481	-0.07610423123305726	0.28035182664079944	0.07567868274042995	-0.08811224723592304	0.33103087887792365	0.03471583362589036	0.0465783152960108	0.35749922788717636	0.038018441593110415	-0.00017575157586595231	0.2671836407247663	0.036152704185042725	-0.11585589082533691	0.12720251014502817	1.2857610664714403	-0.012819241271517111	0.1330626927249681	1.4952829108191548	0.01418498653694605	0.14153839105215604	1.3811312439938015	0.10657989253945505	-0.021330407629215634	1.206446410611684	-0.01047229115883136	-0.0930298156148136	0.9829389087043395	0.01631627858758019	-0.1460521761892659	0.8535855729901743	0.18612960912873322	0.26529252522058894	1.1983414223975468	-0.04126915651634106	0.3399667046271696	0.9903154872691576	-0.030932328002657113	0.4245778408077444	0.8612142805011601	0.11716739164779684
254	5.08	0.1175272578095959	0.7911356729092103	-0.023618690562791634	0.0299095796835278	0.7799413967895432	-0.013983010225042353	-0.023007934346119394	0.4217157923977711	-0.043069197919003877	-0.07138264245988338	0.07321236871338148	-0.07030778815875958	-0.0891163660880184	0.0385619535182916	0.08207820371485942	-0.12708660817815898	0.03927948200372002	0.03546738487013317	-0.07081779132432359	0.03453434386906905	-0.10305172766547784	0.2120639267240636	0.7788350198010427	-0.02856807257847726	0.2569121935603824	0.41328409737047905	-0.07521647020824083	0.2789550060929769	0.07719956790978127	-0.08584453003611515	0.32949873452494416	0.03379376092979359	0.04459634859290804	0.35690320375418405	0.038577247265632435	-0.00542108963227024	0.265992885731433	0.03656634325077039	-0.11503509310937055	0.12648496453013147	1.2864001752953345	-0.01626135365206839	0.13273150639117923	1.4938993799961453	0.022029061595291086	0.13722170125737146	1.3781338500585432	0.113936530428267	-0.018798079531866126	1.2081737211094727	-0.008717650659129259	-0.0932570023407745	0.9883730126790274	0.01082352832446557	-0.14878329248426844	0.8518106873699863	0.16891518883772255	0.2663984946735368	1.198105961048419	-0.0460285732440064	0.3392623772231028	0.9866339320929121	-0.02564770795279618	0.4207793269630978	0.8527645951878513	0.11052755225498334
255	5.1	0.11772594710438399	0.7893630171858443	-0.025000746537212893	0.027964049863448956	0.7792276478417571	-0.014398557559220839	-0.022319100756599597	0.4205243689588333	-0.04433646436076644	-0.0721396256192415	0.07348524331285042	-0.07042383060773946	-0.09286376358241326	0.03898225774792976	0.07495894621269392	-0.12872142676854503	0.03885614455857028	0.032598533889505434	-0.07171841312842792	0.035053883733805705	-0.10596024762008072	0.2111102079478582	0.7772673469049524	-0.029879113627683827	0.25507121280730594	0.41428678866139923	-0.071502337849581	0.2800625722468623	0.07621514131097008	-0.08671053395350074	0.32982212955666207	0.038524333995591076	0.04521451595264626	0.35775393747643824	0.03903828775912198	-0.0009102299349138205	0.26543453105711257	0.035634781813036316	-0.11443767412564787	0.12563453082889584	1.284084765532458	-0.014384033236177237	0.13322970454122202	1.4945645632317266	0.020622773560067337	0.14171043564975497	1.3797434741703272	0.1064259016447424	-0.020480755135248545	1.2060066353702277	-0.006074997744588476	-0.09372300714933167	0.9870939473799172	0.008433318158853547	-0.15261310626250532	0.8403437547409467	0.15455602253920345	0.26640355409238353	1.1968931301052024	-0.046160095431729185	0.33911888901454734	0.9868422474037862	-0.028482728932907524	0.42197835546525686	0.8409795744990181	0.09956223128077701
256	5.12	0.11857383377732889	0.7955215419499584	-0.018673505875066918	0.029686676686212454	0.7811211380666561	-0.0100955846022978	-0.022658539499192887	0.4153569555318385	-0.0445156872152054	-0.0729906286145835	0.0678067282826595	-0.06924659859710712	-0.08224744506253992	0.03614745571669393	0.10014438961811524	-0.12246060555715092	0.03532371402734138	0.05416389335093802	-0.07537888681990965	0.023790884089850053	-0.10436047622891378	0.20921548177171023	0.7814567177087041	-0.024461312297503864	0.2570261165834255	0.41257266955105254	-0.06917066042858747	0.28051299560336573	0.06512361141808706	-0.08890053500873783	0.3246960501730865	0.032561611432555225	0.06903847514072615	0.3499081779095861	0.028931366888854514	0.017368306027825624	0.26877344556839283	0.025201421831415223	-0.1130752894614043	0.12321146534853676	1.2856430031012906	-0.012203736677429132	0.13325066925905185	1.4985377911836142	0.016126128196512	0.14619745091554615	1.3819988533340972	0.09704416210908509	-0.0268719644202615	1.2051039114375408	-0.002273789872316952	-0.09906724576224357	0.979601643356847	0.003103879583559759	-0.15876489586673193	0.8329303551886224	0.16320170180501828	0.2694826625305799	1.1988105702089935	-0.03602124637082069	0.3411540860805209	0.9860412396547406	-0.026983049086104785	0.4232253987425958	0.8331953294778173	0.106479096300855
257	5.14	0.11700622740451909	0.7875485034345434	-0.021539452098864133	0.02783968324875181	0.777510169649259	-0.010191483221159854	-0.02331823459704256	0.4160543078337901	-0.04167552877794798	-0.07271234944070454	0.07266474631551206	-0.07007316368929155	-0.09354171518212495	0.03836197675140412	0.08703826066336852	-0.1298330154409452	0.0387711095586278	0.03837347132973303	-0.07201196853807064	0.03362730294402665	-0.10308074360286311	0.20927771800586958	0.7765892704207198	-0.03103947831915518	0.2573836189223136	0.4133020252152815	-0.0739508156623966	0.27973321653122935	0.0777258392913577	-0.0871657979408433	0.3302402342537564	0.0356622100823796	0.04596713707446147	0.35590825954748534	0.03652186735253722	0.0004979221814734014	0.26899461506222516	0.036815346368950244	-0.11363261130292425	0.12750167973816576	1.283408318094604	-0.0073679331395748275	0.13416192694130705	1.4937806823538646	0.017150372852357532	0.14092268893221777	1.3765627157921643	0.10520224859235151	-0.020186596201709418	1.2070595681965117	-0.007445235657777051	-0.09489965843678633	0.9893434106060065	0.009275220409271916	-0.1590579862622775	0.8284433654324541	0.1404304207037475	0.26784615612275986	1.1956075056493272	-0.04331261831522827	0.3410686383190895	0.9822355096513928	-0.026524305050244792	0.42063898381913156	0.8191884723186876	0.08825870664144761
258	5.16	0.11520082113176733	0.7902732127549478	-0.018547835218543328	0.026700474471795205	0.7814093470528752	-0.008423339674590252	-0.02244706184857624	0.419258798184983	-0.038039396940734695	-0.07218784235710564	0.07369210700016558	-0.07058914924341923	-0.08940035029146193	0.038460420939186696	0.08080432066500538	-0.12647148311528514	0.037798365791910864	0.03408431078820453	-0.07202509589351326	0.03504942651400803	-0.10295272133998448	0.21020697769260682	0.7792904994149218	-0.029890151418790922	0.25684436792070625	0.4120954910404149	-0.07556568466538174	0.27968871032796194	0.07523799270191513	-0.08737315594702447	0.3286527930298652	0.037231273233757606	0.04334119778860267	0.35599542646298843	0.037946385805854695	-0.00827767216818226	0.2648764675568648	0.03575135208247361	-0.11635818194164482	0.12675016320117166	1.284580888372693	-0.008047290582412098	0.1324417890648264	1.49479962129076	0.019475646451757873	0.1426441013646845	1.3782555418930964	0.10365851396821822	-0.022136995291914076	1.2054341387287764	-0.003075458109506477	-0.09382199314773515	0.9864256447460636	0.009427425675227053	-0.15852810467854164	0.8216879217034428	0.126967915920579	0.2696223408817608	1.1952855414691137	-0.04525086949556684	0.3412883299252239	0.9817805471890811	-0.02459613679043244	0.4180127224352914	0.8151559106274495	0.0745469625996813
259	5.18	0.11584674158007312	0.7902072928598645	-0.01656157442361068	0.02728924803563319	0.7801880111610463	-0.005562975449142605	-0.0219464105000587	0.4187307465756322	-0.035568697744346275	-0.07197113668777926	0.07430531611007102	-0.06864812048122017	-0.09124108304454537	0.036542824901130935	0.0785856019990217	-0.12859936322317733	0.03852698691515171	0.033931370381764435	-0.07218070601784808	0.03452131627301523	-0.10882194308101222	0.20989168727938753	0.7780482904295946	-0.02406567022969061	0.25662443947230584	0.41155734905785374	-0.07042636631957722	0.28029368550400596	0.0756330937530306	-0.08497240116016826	0.3289641986622718	0.03662078722342591	0.04057361581215196	0.3559884038374518	0.036157892862343444	-0.0038984682375000986	0.265764215346792	0.03378767206420174	-0.11431501615354941	0.12576926950541858	1.2835789369674304	-0.008564556055761284	0.13160067424053598	1.496258677705479	0.018338727904987535	0.14854484270352686	1.3805272569666696	0.09629221681153784	-0.023109631062504563	1.2058232497163561	-0.004753076015950698	-0.09720123347076907	0.9867280666177434	0.0067744753914575516	-0.16021387838266582	0.8162172801024529	0.11321496265538031	0.2707062749750215	1.1945322099537763	-0.0378581070430616	0.3398165149456935	0.9836365939501289	-0.021868211492320044	0.42027651904050434	0.8052848836605347	0.059553677657057484
260	5.2	0.11709415052794013	0.7968754581087296	-0.013685562797468648	0.03068202346175156	0.7853237399626174	-0.00420989705298331	-0.022394919391162893	0.4184322247268848	-0.043211965156076025	-0.07107659609134352	0.06889493163546473	-0.06630834772275869	-0.0891497328236047	0.03578399739554116	0.0970604338699271	-0.12832671192614037	0.03620357267420085	0.0488299627308675	-0.07232517999105245	0.02342357435899141	-0.10036947156037682	0.2089883989880855	0.7841699252881964	-0.018272793869060156	0.2572888635649692	0.41425597216053806	-0.06699481715169303	0.2789541696786742	0.06496573258487982	-0.08847954619909684	0.32620722201310615	0.03427160630159213	0.07906805662526956	0.34994448463036804	0.03101843596573362	0.02326124935576262	0.2686054343024557	0.02393962595228544	-0.11256536685755565	0.12409867860023592	1.2865326190217568	-0.0031390663788434673	0.13314977879166418	1.4969426960676808	0.02762588185998613	0.1426029026910293	1.3838839567952652	0.10746155464048542	-0.02684534644217765	1.2054074600074662	-0.001329175670847243	-0.10046822557246968	0.9839049266539364	-0.002441560326307369	-0.16570424179770146	0.8127331197984513	0.1141740274766133	0.2713443658326839	1.1969730685453932	-0.028970564912396114	0.3448354454037506	0.9803714368834525	-0.016992322821032517	0.4228904935797944	0.8028748764956103	0.06406212863249747
